Coordinates																																												
version=1																																												
nRows=24																																												
nColumns=45																																												
inDegrees=yes																																												
																																												
"Units are S.I. units (second, meters, Newtons, ...)"																																												
Angles are in degrees.																																												
																																												
endheader																																												
time	pelvis_tilt	pelvis_list	pelvis_rotation	pelvis_tx	pelvis_ty	pelvis_tz	hip_flexion_r	hip_adduction_r	hip_rotation_r	knee_angle_r	knee_adduction_r	knee_angle_r_beta	ankle_angle_r	subtalar_angle_r	mtp_angle_r	hip_flexion_l	hip_adduction_l	hip_rotation_l	knee_angle_l	knee_adduction_l	knee_angle_l_beta	ankle_angle_l	subtalar_angle_l	mtp_angle_l	lumbar_extension	lumbar_bending	lumbar_rotation	thoracic_extension	thoracic_bending	thoracic_rotation	arm_flex_r	arm_add_r	arm_rot_r	elbow_flex_r	pro_sup_r	wrist_flex_r	wrist_dev_r	arm_flex_l	arm_add_l	arm_rot_l	elbow_flex_l	pro_sup_l	wrist_flex_l	wrist_dev_l
19.6225	-1.3097668	1.58280533	-0.00395645	0.68434659	0.95176645	0.45715457	31.26492089	-5.60475936	-2.96449976	54.4692355	5.063	0.9506675	5.64307429	-6.59386503	0.56210627	1.20323532	3.64872903	-4.38944324	17.62397447	5.063	0.30759638	16.7981358	-6.22729693	-0.15868924	-5.95357103	0.28346518	-4.70671558	0	0	0	-0.75936855	-11.61021414	1.52010608	23.29140516	89.99911678	0	0	5.70571321	-17.39019819	9.50926974	46.13860488	89.99945425	0	0
19.63328571	-1.85377656	1.95120456	0.22208016	0.68153868	0.95029246	0.45717953	32.53245925	-6.00302908	-3.13229611	51.25557983	5.063	0.89457863	5.73394854	-6.12300298	0.63223455	0.74412631	4.01919602	-4.28203457	17.20829873	5.063	0.30034147	16.98329829	-5.84274882	-0.32004429	-5.63292613	-0.1396935	-4.95201173	0	0	0	-1.61851177	-11.44586892	1.50164391	23.37531427	89.99911678	0	0	6.72312762	-17.92725014	9.18145992	47.04489802	89.99945425	0	0
19.64407143	-1.98549739	1.75675947	0.39003191	0.68003454	0.94979837	0.4568434	32.81877157	-5.83777195	-3.61548324	47.27164316	5.063	0.82504582	5.60163496	-5.80399961	0.4162261	-0.41409517	3.84612608	-3.977802	16.44859767	5.063	0.28708219	17.05492084	-5.73786047	-0.705246	-5.61565007	0.15369092	-5.0566606	0	0	0	-2.38928858	-11.42482247	1.22733176	22.58313838	89.99911678	0	0	7.09896629	-18.20143061	9.05897255	49.03623934	89.99945425	0	0
19.65485714	-1.83428729	1.80586105	0.60844632	0.67769219	0.94917982	0.45700775	32.81082775	-5.88557904	-4.00687545	43.21993846	5.063	0.75433023	5.51150865	-5.53219042	0.0269054	-1.74449071	3.83546348	-3.87862798	15.86539571	5.063	0.27690339	17.14797739	-5.26794332	-1.30100744	-6.07214677	0.09806276	-5.36425931	0	0	0	-2.74843764	-11.217518	0.83465392	21.87494497	89.99911678	0	0	7.64205664	-18.85529727	8.77049605	51.10934628	89.99945425	0	0
19.66564286	-2.36236188	2.21263277	0.77741077	0.67524792	0.94730589	0.45722375	33.64659315	-6.28438366	-4.20004434	39.35138745	5.063	0.68681128	5.60250244	-4.9950735	-0.01370066	-2.34498528	4.22170255	-3.79026332	15.27236491	5.063	0.26655305	17.2551868	-4.81817197	-1.5632877	-5.7354174	-0.39200762	-5.4784693	0	0	0	-3.56892214	-11.05107674	0.74267639	21.81513689	89.99911678	0	0	8.45441291	-19.27848044	8.53369238	52.14371978	89.99945425	0	0
19.67642857	-2.88845125	2.61474676	0.82446226	0.67253492	0.94520395	0.45762318	34.39143852	-6.60502366	-4.33205924	35.32288525	5.063	0.61650065	5.78351728	-4.22175917	-0.15879381	-2.84663388	4.60165493	-3.79964934	14.85437362	5.063	0.25925773	17.39392522	-4.50773818	-1.90864865	-5.4504385	-0.88351401	-5.54280451	0	0	0	-4.10349688	-10.91843791	0.66223553	21.87085837	89.99911678	0	0	9.34102711	-19.78104982	8.31872438	53.153069	89.99945425	0	0
19.68721429	-3.02253497	2.23449932	0.7656182	0.67119211	0.94414915	0.45824045	34.04528768	-6.00558288	-4.66637623	30.39444503	5.063	0.53048314	5.67046648	-3.82453766	-0.79008785	-3.92435283	4.11967158	-3.94342655	14.28701227	5.063	0.2493554	17.44788028	-4.13708985	-2.92991332	-5.51955786	-0.44130609	-5.34769859	0	0	0	-4.6602017	-10.99073058	0.31048371	21.4031401	89.99911678	0	0	9.52782754	-20.06253874	8.34662496	54.95210463	89.99945425	0	0
19.698	-3.42441756	2.85984522	0.76792183	0.66846544	0.94171719	0.45881718	34.55055701	-6.50000659	-4.69287348	26.4467788	5.063	0.46158337	6.09917469	-2.68103534	-0.93077561	-4.51649412	4.71132239	-4.04646255	13.96909003	5.063	0.24380661	17.53660114	-3.71968938	-3.34886886	-5.33168782	-1.21542521	-5.46821667	0	0	0	-5.08384384	-10.7711928	0.22546666	21.4543982	89.99911678	0	0	10.42847325	-20.59346733	8.08876422	55.7991166	89.99945425	0	0
19.70878571	-3.49597391	2.59622325	0.6923254	0.66742144	0.94037261	0.45973411	33.90625681	-5.9971834	-5.0137145	21.55164546	5.063	0.37614717	6.17244879	-1.87426971	-1.16827807	-5.62717045	4.3014936	-4.41309224	13.5170842	5.063	0.23591762	17.48740654	-3.15208642	-4.6509821	-5.36876681	-0.924264	-5.27034504	0	0	0	-5.54048096	-10.76535732	-0.14786038	21.11770428	89.99911678	0	0	10.6659261	-20.91504731	8.02616981	57.39745537	89.99945425	0	0
19.71957143	-3.76425912	3.22107591	0.66176742	0.66525831	0.93781048	0.46071848	34.09464652	-6.43175326	-5.08164767	17.93120966	5.063	0.31295865	6.81322097	-0.42969232	-1.22522578	-6.37264019	4.85258068	-4.54347804	13.24664612	5.063	0.23119759	17.47671021	-2.72262827	-5.19744103	-5.33272685	-1.69584562	-5.29992564	0	0	0	-5.81150564	-10.53376531	-0.25359263	21.01998259	89.99911678	0	0	11.41510794	-21.40202311	7.8000074	58.06740544	89.99945425	0	0
19.73035714	-3.53419246	3.05974437	0.75141401	0.6646284	0.93623124	0.46186739	33.16087016	-6.11960318	-5.51294863	13.96903058	5.063	0.24380558	7.32469081	0.71041367	-0.91482103	-7.62334959	4.44773294	-4.98533631	13.21876133	5.063	0.23071091	17.42894913	-1.88130576	-7.12163148	-5.70062304	-1.54714583	-5.43965025	0	0	0	-6.21710945	-10.48515922	-0.81461988	21.0381091	89.99911678	0	0	11.45199567	-21.86497754	7.58098331	59.73126545	89.99945425	0	0
19.74114286	-3.77051128	3.55948916	0.68324747	0.66332927	0.93347327	0.4630313	33.36392169	-6.4029255	-5.64328003	11.45408608	5.063	0.19991151	8.09701822	2.06014584	-0.90175685	-8.35681339	4.84645043	-5.10131099	13.13726764	5.063	0.22928858	17.41792806	-1.52179529	-7.66860086	-5.57756543	-2.19980659	-5.38538762	0	0	0	-6.44678132	-10.30955156	-0.92383716	20.96577811	89.99911678	0	0	12.01528779	-22.20839808	7.38093173	60.19480451	89.99945425	0	0
19.75192857	-3.85206988	3.49909709	0.77504289	0.66305002	0.93111955	0.4642027	33.20509405	-6.23343353	-6.2164193	9.42051429	5.063	0.16441899	9.00577463	3.3355479	-0.35205857	-9.07494805	4.52104091	-5.57918401	13.53186317	5.063	0.23617557	17.35575914	-0.72543365	-9.77306725	-5.50930431	-2.17210798	-5.43827897	0	0	0	-6.92548723	-10.30573965	-1.34732307	21.09641862	89.99911678	0	0	12.01588969	-22.50994643	7.09879823	61.37968526	89.99945425	0	0
19.76271429	-4.02335224	3.76486001	0.71966058	0.6622821	0.92844367	0.46550073	33.567894	-6.2814417	-6.25461618	8.57834174	5.063	0.14972031	9.82448393	3.86446187	-0.47799444	-9.69854939	4.63876927	-5.63476744	13.82744473	5.063	0.24133444	17.36376691	-0.54893458	-10.19539657	-5.39676721	-2.51296451	-5.48514217	0	0	0	-7.12305049	-10.27322233	-1.40903475	21.14771342	89.99911678	0	0	12.27525947	-22.8098188	6.91368805	61.58185106	89.99945425	0	0
19.7735	-4.2232088	3.82275526	0.72918674	0.66201017	0.92590713	0.46651655	33.97103567	-6.18564414	-6.18477041	8.44919493	5.063	0.14746627	10.57325068	3.95929188	-0.65630307	-10.2195285	4.53868974	-5.60222107	14.29565131	5.063	0.24950618	17.38888308	-0.45556371	-10.46443388	-5.16507748	-2.60854485	-5.5728344	0	0	0	-7.2067941	-10.3016851	-1.43490278	21.34118491	89.99911678	0	0	12.43213497	-22.90153683	6.81691415	61.73653848	89.99945425	0	0
19.78428571	-4.03134519	3.17643295	0.78593346	0.66255261	0.92418966	0.4683812	33.73415944	-5.44829105	-6.89681335	8.75813683	5.063	0.15285832	11.22022306	4.38665879	-0.321834	-10.9123561	3.40105347	-6.81683802	15.32105902	5.063	0.26740292	16.68677536	0.62710279	-15.83317432	-5.36785949	-1.96062644	-5.73551914	0	0	0	-7.29416035	-10.20622786	-2.24791558	21.29711809	89.99911678	0	0	11.98539965	-23.09940264	5.91745297	62.97211894	89.99945425	0	0
19.79507143	-4.15250019	2.84439877	0.90576871	0.66309424	0.92190527	0.46963056	34.14585294	-5.05693275	-6.93151039	10.03904383	5.063	0.17521437	11.58559333	3.70504684	-0.68685307	-11.26368063	2.76354689	-7.02284128	16.33499509	5.063	0.28509945	16.62413654	0.86650579	-16.75642856	-5.13487683	-1.58588186	-5.84637219	0	0	0	-7.51948699	-10.27646264	-2.35869985	21.56942251	89.99911678	0	0	11.87576099	-23.13005644	5.71343971	63.06570643	89.99945425	0	0
19.80585714	-4.14589159	2.30619206	0.93358605	0.66402733	0.91988389	0.47139002	34.29757096	-4.40777578	-6.9801526	11.50923091	5.063	0.20087397	11.3755573	2.9282232	-1.48279665	-11.57073237	1.7444629	-8.03527561	17.73887617	5.063	0.30960179	16.02293225	1.68996475	-20.5564178	-5.05208446	-1.03666902	-5.95180001	0	0	0	-7.44896075	-10.28670468	-2.66949204	21.59457603	89.99911678	0	0	11.61098832	-23.0963201	5.19940928	63.06146645	89.99945425	0	0
19.81664286	-4.11848557	1.7424186	1.03704816	0.66555554	0.91785989	0.47259661	34.43824769	-3.7991202	-6.87625025	13.35636549	5.063	0.23311255	10.92934787	1.70778249	-2.10467882	-11.90351113	0.79550342	-8.49878073	19.13995174	5.063	0.33405518	15.42250182	1.72502885	-22.90309246	-4.88218321	-0.35200104	-6.14814408	0	0	0	-7.48220119	-10.52655177	-2.89599415	21.72614164	89.99911678	0	0	11.20963865	-22.92738007	4.8833685	62.94238276	89.99945425	0	0
19.82742857	-4.04085425	1.10855878	1.18681613	0.66768147	0.91611312	0.47402588	34.36179762	-3.13169528	-6.85429765	15.14575848	5.063	0.26434335	9.97334319	0.45552146	-2.92690462	-12.21204702	-0.29665348	-9.02089683	20.70783956	5.063	0.36141998	14.51052138	1.69509784	-25.66573118	-4.67203486	0.37634688	-6.31525081	0	0	0	-7.53339242	-10.46619869	-3.14289044	21.74048381	89.99911678	0	0	10.74860719	-22.74245918	4.41715566	62.66541734	89.99945425	0	0
19.83821429	-3.93579768	0.47567653	1.32608107	0.67001913	0.91439037	0.47525822	34.29617626	-2.50096158	-6.93086327	17.13246721	5.063	0.29901796	8.88444243	-0.70629135	-3.4703894	-12.35852906	-1.37734423	-9.43163075	22.64606878	5.063	0.39524846	13.54850243	1.36777035	-27.20777325	-4.48766618	1.12908942	-6.46786589	0	0	0	-7.54152724	-10.6790553	-3.33723003	21.92403895	89.99911678	0	0	10.21255773	-22.46248002	4.10169808	62.29404828	89.99945425	0	0
19.849	-3.80332379	-0.04084488	1.39886113	0.67295409	0.91286665	0.47632513	34.22885114	-1.99415857	-6.99819409	19.27011442	5.063	0.33632694	7.85099243	-1.63439631	-3.52529929	-12.50657876	-2.27570713	-9.70966973	24.65092123	5.063	0.43023974	12.3596819	0.69815985	-27.64326605	-4.21759013	1.77449378	-6.49023461	0	0	0	-7.77049053	-10.84780902	-3.39730828	22.25801127	89.99911678	0	0	9.43047509	-22.14026203	4.06655324	61.96906156	89.99945425	0	0
19.85978571	-3.64459092	-1.0429403	1.81734779	0.67551832	0.9118613	0.47752513	33.70637462	-1.14543078	-7.53124158	20.58262602	5.063	0.35923459	6.19546848	-2.76124434	-4.11941195	-12.0991773	-3.9392212	-9.90170545	27.59875765	5.063	0.48168919	10.84886314	-0.09019013	-28.5273013	-4.07674084	2.96772374	-6.78885284	0	0	0	-7.54713835	-11.0148275	-3.67895264	22.13680966	89.99911678	0	0	9.22598658	-21.50241559	3.36044832	60.76113537	89.99945425	0	0
19.87057143	-3.38333341	-1.70786621	1.78487374	0.67810423	0.91099507	0.47870055	33.32797612	-0.46837396	-7.73840752	22.30349267	5.063	0.38926938	5.10359013	-3.36391908	-3.7874674	-11.82518204	-5.03160206	-10.12860815	30.46158493	5.063	0.53165495	8.71035486	-1.73792884	-28.75266476	-4.05916774	3.81342199	-6.72139097	0	0	0	-7.3749993	-11.25751453	-3.82086864	22.3185798	89.99911678	0	0	8.69606969	-21.02858807	3.17365445	59.98810376	89.99945425	0	0
